<svg width="35" height="30" viewBox="0 0 73 71" fill="none" xmlns="http://www.w3.org/2000/svg">
<ellipse cx="36.5" cy="35.5" rx="36.5" ry="35.5" fill="#F8D198"/>
<path fill-rule="evenodd" clip-rule="evenodd" d="M47.2332 20.7713C47.5674 20.7111 47.8705 20.6262 48.1445 20.5198C47.271 23.0907 46.0681 26.2852 44.8367 29.4392C43.5413 32.7572 42.2169 36.0239 41.2161 38.4617C40.8045 39.4641 40.4478 40.3261 40.1704 40.9937C39.9336 40.8061 39.5275 40.4236 38.8781 39.6729C35.9445 36.2817 30.5002 35.5239 26.6386 37.2614C24.6894 38.1384 23.4688 39.456 22.7368 40.554C22.3711 41.1025 22.1265 41.5975 21.9723 41.9583C21.8951 42.1389 21.8404 42.2863 21.8044 42.3908C21.7864 42.443 21.773 42.4846 21.7639 42.5141C21.7593 42.5289 21.7558 42.5408 21.7532 42.5494L21.7501 42.5601L21.7491 42.5636L21.7488 42.5649L21.7486 42.5655C21.7486 42.5657 21.7485 42.5659 22.2205 42.697L21.7485 42.5659L21.748 42.5678L22.225 42.6983L22.2303 42.6997C21.748 42.5678 21.7479 42.568 21.7479 42.5682L21.7477 42.5687L21.7474 42.57L21.7463 42.5742L21.7425 42.5885C21.7393 42.6006 21.7348 42.6179 21.7292 42.6401C21.718 42.6845 21.7024 42.7486 21.6837 42.8307C21.6464 42.9947 21.5969 43.2304 21.5466 43.5229C21.4462 44.1071 21.3419 44.9221 21.3271 45.8463C21.2977 47.6784 21.6188 50.0238 23.1159 51.8201C24.5699 53.5648 26.2775 54.4838 27.6189 54.9661C28.2896 55.2072 28.871 55.34 29.2876 55.4128C29.4961 55.4492 29.6639 55.4706 29.7816 55.4831C29.8386 55.4891 29.8839 55.493 29.9165 55.4955C29.9465 55.5034 29.9874 55.5135 30.0386 55.5251C30.1479 55.5499 30.3042 55.5811 30.5017 55.6099C30.8965 55.6674 31.4575 55.7153 32.1381 55.681C33.308 55.622 34.8286 55.32 36.4574 54.4118C36.5231 54.5154 36.5984 54.6138 36.6858 54.7012C37.1168 55.1322 37.6786 55.335 38.2513 55.4044C38.8222 55.4737 39.4344 55.4147 40.0158 55.2943C41.1748 55.0544 42.3085 54.5494 42.9339 54.1585C43.168 54.0122 43.2392 53.7037 43.0929 53.4695C42.9465 53.2354 42.638 53.1642 42.4039 53.3105C41.8751 53.641 40.8516 54.1001 39.8131 54.3151C39.2958 54.4222 38.7992 54.4635 38.3716 54.4117C37.9458 54.3601 37.6195 54.2206 37.3929 53.9941C37.3662 53.9674 37.3379 53.9319 37.3082 53.886C38.3248 53.1866 39.0144 52.1121 39.485 50.944C39.962 49.7602 40.2297 48.4418 40.3777 47.2234C40.526 46.0023 40.5561 44.8639 40.5494 44.0321C40.546 43.6156 40.5334 43.2745 40.5216 43.0366C40.5163 42.9312 40.5112 42.8459 40.5071 42.7833L40.5826 42.6034C40.6618 42.4142 40.7779 42.1365 40.9253 41.7826C41.2201 41.0748 41.64 40.062 42.1411 38.8415C43.1432 36.4006 44.47 33.1281 45.7682 29.8029C47.0658 26.4793 48.3374 23.0967 49.2274 20.4379C49.3238 20.1502 49.4158 19.8705 49.503 19.5998C49.6198 19.4686 49.7239 19.3299 49.816 19.1848C50.2909 18.4368 50.4129 17.5764 50.4129 16.8538C50.4129 16.6748 50.4054 16.5011 50.3932 16.3362C50.4188 16.1896 50.4383 16.0535 50.4511 15.9292C50.467 15.7734 50.4737 15.6236 50.4646 15.4879C50.456 15.3615 50.4313 15.2002 50.35 15.054C50.2923 14.9501 50.2416 14.8618 50.1995 14.7972C50.18 14.7672 50.1509 14.7243 50.1153 14.6843C50.0983 14.6652 50.0648 14.6294 50.0165 14.5953C49.9803 14.5697 49.8577 14.4882 49.6809 14.5014C49.4564 14.5183 49.3253 14.6669 49.2704 14.7701C49.2243 14.8567 49.2144 14.9358 49.2113 14.965C49.2042 15.0316 49.21 15.0923 49.2128 15.1197C49.2195 15.1855 49.234 15.2687 49.2476 15.3454L49.2588 15.408L49.2588 15.408C49.2986 15.6302 49.3533 15.9353 49.3857 16.2862C49.3545 16.4489 49.3146 16.6316 49.2658 16.8339C49.119 17.443 48.8993 18.2007 48.6218 19.0727C48.281 19.3933 47.7858 19.6557 47.0561 19.7871C44.7663 20.1992 43.9737 20.1725 42.9667 19.7194C42.4832 19.5018 41.9534 19.1858 41.202 18.7377L41.202 18.7377L40.9122 18.565C40.0139 18.0304 38.8507 17.3499 37.223 16.5129C35.5261 15.6403 33.9837 15.4101 32.6218 15.5791C31.265 15.7475 30.1203 16.3079 29.2048 16.967C28.2905 17.6253 27.5943 18.3892 27.128 18.9848C26.8941 19.2836 26.7161 19.5424 26.5957 19.7282C26.5354 19.8212 26.4894 19.8961 26.4579 19.9488C26.4422 19.9751 26.43 19.9959 26.4215 20.0107L26.4115 20.0282L26.4086 20.0335L26.4076 20.0352L26.4072 20.0358C26.4071 20.0361 26.407 20.0363 26.844 20.2792C27.2811 20.522 27.281 20.5222 27.2809 20.5223L27.282 20.5205L27.2881 20.5097C27.294 20.4996 27.3033 20.4835 27.3162 20.462C27.3419 20.419 27.3815 20.3544 27.4348 20.2722C27.5415 20.1077 27.7023 19.8735 27.9154 19.6013C28.343 19.0552 28.9733 18.3659 29.7891 17.7786C30.6038 17.1921 31.593 16.7145 32.7449 16.5715C33.8918 16.4291 35.233 16.6141 36.7657 17.4022C38.3677 18.226 39.5113 18.895 40.4008 19.4243L40.6955 19.6C41.432 20.0395 42.0165 20.3884 42.5564 20.6313C43.8564 21.2162 44.9092 21.1895 47.2332 20.7713ZM36.9371 52.9177C37.6358 52.3656 38.1644 51.5458 38.5575 50.5703C38.9901 49.4965 39.243 48.2718 39.385 47.1028C39.5267 45.9365 39.5559 44.8432 39.5494 44.0402C39.5474 43.7897 39.5419 43.568 39.5353 43.3818C39.5041 43.4294 39.473 43.477 39.4419 43.5246C39.2992 43.7427 39.1563 43.9612 39.0069 44.183C38.5761 44.8221 38.1114 45.4548 37.5044 46.0619L37.3646 46.2016C36.7337 46.8317 36.0254 47.5392 35.5347 48.1526C35.376 48.3511 35.1434 48.556 34.8656 48.7571C35.0115 49.0018 35.1473 49.2468 35.2758 49.4805C35.3581 49.6301 35.4393 49.781 35.5205 49.9317L35.5205 49.9319L35.5206 49.9319C35.7776 50.4097 36.0345 50.887 36.3267 51.3252C36.5941 51.7264 36.7575 52.2942 36.8914 52.7598L36.9017 52.7958C36.9123 52.8326 36.9228 52.8687 36.933 52.904C36.9344 52.9085 36.9357 52.9131 36.9371 52.9177ZM39.4646 41.7084C39.1588 41.4532 38.7285 41.0285 38.1218 40.3271C35.5194 37.3188 30.5693 36.5893 27.0489 38.1733C25.307 38.9571 24.2209 40.1306 23.5689 41.1087C23.2426 41.5981 23.026 42.0374 22.8918 42.3512C22.8249 42.508 22.7787 42.633 22.7498 42.7167C22.7354 42.7586 22.7253 42.79 22.7192 42.8099L22.7128 42.8309L22.7121 42.8332L22.7119 42.8339L22.7118 42.8342L22.7117 42.8345L22.7117 42.8346L22.7096 42.8426L22.699 42.8841C22.6896 42.9215 22.6757 42.9783 22.6588 43.0526C22.625 43.2012 22.5791 43.4194 22.5321 43.6924C22.4381 44.2393 22.3407 45.0016 22.3269 45.8623C22.2991 47.5999 22.6128 49.6546 23.884 51.1799C25.1983 52.7568 26.7407 53.5877 27.9572 54.0251C28.5655 54.2437 29.0901 54.3631 29.4596 54.4277C29.6442 54.4599 29.7896 54.4783 29.8868 54.4886C29.9354 54.4938 29.9718 54.4968 29.9951 54.4986L30.0198 54.5003L30.0238 54.5006L30.0242 54.5006L30.0245 54.5006L30.0248 54.5006L30.0846 54.5035L30.1416 54.5205L30.1417 54.5205L30.1422 54.5206L30.1425 54.5208L30.143 54.5209L30.1449 54.5214L30.1654 54.527C30.1851 54.5322 30.2167 54.5401 30.2596 54.5499C30.3454 54.5693 30.476 54.5956 30.6458 54.6203C30.9857 54.6699 31.4811 54.7128 32.0877 54.6822C33.1479 54.6288 34.5504 54.3509 36.0636 53.4857C36.0318 53.3841 36.0018 53.2827 35.973 53.1838L35.9415 53.0755C35.7912 52.5583 35.6708 52.1442 35.4946 51.8799C35.1736 51.3983 34.8853 50.8624 34.6242 50.3769L34.6241 50.3768C34.547 50.2334 34.4722 50.0943 34.3996 49.9624C34.2727 49.7316 34.1465 49.5051 34.0177 49.2882C33.9755 49.3115 33.9329 49.3346 33.8901 49.3575C33.1784 49.738 32.3294 50.0917 31.5069 50.3177C30.7008 50.5392 29.8511 50.6577 29.1719 50.498C28.8224 50.4158 28.4866 50.2523 28.2394 49.9601C27.9887 49.6636 27.8722 49.2855 27.8722 48.8575C27.8722 48.3018 27.9911 47.8347 28.2441 47.4616C28.4988 47.086 28.8561 46.8546 29.2428 46.7125C29.9302 46.4599 30.8103 46.4612 31.5921 46.4623H31.5921L31.7443 46.4624C32.6906 46.4624 33.4048 46.9124 33.9573 47.5025C34.0814 47.6351 34.1991 47.7766 34.3111 47.9239C34.515 47.7739 34.6656 47.6383 34.7538 47.5279C35.2814 46.8685 36.0287 46.1223 36.6486 45.5033L36.7973 45.3548C37.3384 44.8136 37.7617 44.2411 38.1776 43.6241C38.3114 43.4256 38.4468 43.2187 38.5859 43.0061L38.5861 43.0058L38.5862 43.0057C38.8593 42.5882 39.1468 42.1489 39.4646 41.7084ZM50.2072 15.0128L50.2075 15.0172C50.2072 15.0141 50.2071 15.0127 50.2072 15.0128ZM33.2273 48.186C33.3064 48.2705 33.3831 48.3603 33.4576 48.4547L33.4186 48.4756C32.7645 48.8254 31.9845 49.1494 31.2419 49.3535C30.4829 49.562 29.8315 49.6258 29.4008 49.5245C29.1954 49.4763 29.0742 49.3985 29.0029 49.3143C28.9353 49.2343 28.8722 49.1008 28.8722 48.8575C28.8722 48.4424 28.9604 48.1871 29.0718 48.0229C29.1815 47.8611 29.3458 47.7401 29.5878 47.6511C30.1018 47.4623 30.8167 47.4623 31.6873 47.4624L31.7443 47.4624C32.3314 47.4624 32.7989 47.7284 33.2273 48.186Z" fill="black"/>
</svg>
